<svg xmlns="http://www.w3.org/2000/svg" version="1.1" viewBox="0.00 0.00 1024.00 1024.00">
<path fill="#242426" d="
  M 542.76 192.21
  L 542.40 200.24
  L 542.27 208.26
  L 542.37 216.27
  L 542.70 224.26
  L 542.70 224.26
  L 542.70 224.26
  L 542.74 224.88
  L 543.43 227.20
  L 544.02 229.51
  L 545.17 231.65
  L 546.70 233.36
  L 546.70 233.36
  L 546.70 233.36
  L 546.70 233.36
  L 547.99 234.31
  L 549.46 235.04
  L 551.11 235.57
  L 552.95 235.89
  L 553.07 236.21
  L 553.69 236.48
  L 554.82 236.34
  L 561.98 237.11
  L 566.78 237.59
  L 571.58 237.77
  L 571.58 237.77
  L 577.18 237.61
  L 582.78 237.05
  L 585.77 237.25
  L 586.59 237.51
  L 587.39 237.56
  L 588.32 237.35
  L 591.69 237.71
  L 594.87 238.40
  L 597.88 239.42
  L 600.70 240.77
  L 600.70 240.77
  L 604.03 242.96
  L 607.06 245.69
  L 608.35 247.19
  L 609.46 248.80
  L 609.46 248.80
  L 609.46 248.80
  L 609.46 248.80
  L 610.62 251.12
  L 611.45 253.64
  L 611.94 256.36
  L 612.10 259.28
  L 612.05 331.55
  L 611.73 334.27
  L 610.77 336.61
  L 610.77 336.61
  L 610.77 336.61
  L 609.16 338.56
  L 606.90 340.13
  L 604.49 341.16
  L 602.12 341.69
  L 599.81 341.71
  L 597.75 341.20
  L 595.41 339.99
  L 593.55 338.36
  L 593.55 338.36
  L 592.50 336.93
  L 591.70 335.29
  L 591.06 332.21
  L 590.86 327.44
  L 590.99 259.25
  L 590.82 253.06
  L 590.46 251.23
  L 589.61 249.94
  L 589.61 249.94
  L 589.61 249.94
  L 588.52 249.28
  L 587.08 248.99
  L 586.34 248.76
  L 586.34 248.76
  L 584.70 248.44
  L 583.00 248.36
  L 568.65 248.52
  L 554.27 248.33
  L 553.26 248.40
  L 551.15 248.26
  L 549.04 247.72
  L 548.20 247.40
  L 547.60 247.49
  L 547.48 247.57
  L 544.79 247.19
  L 542.30 246.52
  L 540.02 245.56
  L 537.94 244.31
  L 537.94 244.31
  L 537.94 244.31
  L 536.28 242.98
  L 534.78 241.41
  L 533.44 239.63
  L 532.26 237.62
  L 532.59 237.30
  L 532.52 236.86
  L 532.36 236.69
  L 532.15 236.66
  L 531.89 236.70
  L 530.41 219.73
  L 530.80 212.83
  L 530.86 206.00
  L 530.58 199.24
  L 529.97 192.55
  L 529.24 190.11
  L 528.07 187.17
  L 527.24 185.72
  L 526.14 184.65
  L 524.98 184.02
  L 524.53 183.92
  L 524.05 184.00
  L 521.92 184.99
  L 520.11 186.33
  L 518.74 187.85
  L 517.64 189.66
  L 515.68 194.51
  L 515.68 194.51
  L 515.68 194.51
  L 514.92 197.28
  L 514.39 200.12
  L 514.09 203.04
  L 514.02 206.03
  L 514.47 218.42
  L 515.51 231.00
  L 516.28 236.45
  L 517.39 241.60
  L 518.25 244.42
  L 519.29 246.97
  L 520.50 249.24
  L 521.90 251.23
  L 523.30 252.81
  L 524.83 254.23
  L 524.83 254.23
  L 524.83 254.23
  L 526.93 255.78
  L 529.24 257.08
  L 531.76 258.13
  L 534.48 258.94
  L 535.86 259.59
  L 535.86 259.59
  L 536.94 259.74
  L 538.09 259.62
  L 543.07 260.22
  L 564.80 260.46
  L 567.75 260.79
  L 570.40 261.72
  L 570.40 261.72
  L 572.63 263.18
  L 574.58 265.19
  L 574.76 265.42
  L 574.76 265.42
  L 575.73 267.01
  L 576.42 268.80
  L 576.83 270.80
  L 576.97 273.01
  L 577.13 363.76
  L 577.03 365.58
  L 576.71 367.24
  L 576.16 368.75
  L 575.39 370.10
  L 575.39 370.10
  L 575.39 370.10
  L 574.26 371.43
  L 573.68 371.94
  L 573.68 371.94
  L 572.36 372.85
  L 570.86 373.56
  L 569.19 374.05
  L 567.35 374.34
  L 564.64 374.31
  L 562.17 373.67
  L 562.17 373.67
  L 559.93 372.41
  L 557.94 370.54
  L 557.18 369.44
  L 556.61 368.12
  L 556.22 366.57
  L 556.02 364.80
  L 556.00 361.23
  L 556.37 357.76
  L 556.75 339.88
  L 556.88 322.00
  L 556.88 322.00
  L 556.74 303.77
  L 556.35 285.54
  L 555.87 283.34
  L 555.80 280.67
  L 553.68 280.25
  L 551.55 280.08
  L 551.55 280.08
  L 551.55 280.08
  L 549.54 280.15
  L 547.52 280.44
  L 539.28 280.06
  L 532.84 279.32
  L 527.09 278.08
  L 521.81 276.27
  L 517.79 274.31
  L 514.02 271.89
  L 510.45 268.99
  L 507.20 265.71
  L 504.22 262.00
  L 501.64 258.00
  L 499.51 253.78
  L 497.84 249.39
  L 496.49 244.32
  L 495.28 238.01
  L 495.46 236.23
  L 495.11 234.68
  L 495.11 234.68
  L 494.99 234.42
  L 494.46 228.98
  L 494.71 226.25
  L 494.56 223.58
  L 494.20 221.61
  L 492.23 221.10
  L 490.00 220.93
  L 292.21 220.98
  L 292.03 220.77
  L 291.74 220.66
  L 291.48 220.84
  L 291.45 220.97
  L 291.12 234.51
  L 291.23 248.03
  L 291.39 260.81
  L 291.31 276.00
  L 291.13 296.00
  L 291.20 582.25
  L 291.40 587.60
  L 291.99 591.85
  L 296.08 591.88
  L 300.08 592.19
  L 303.97 592.78
  L 307.76 593.65
  L 308.52 594.20
  L 309.18 594.30
  L 309.18 594.30
  L 309.55 594.14
  L 314.49 595.73
  L 314.50 595.73
  L 314.50 595.73
  L 318.13 597.50
  L 321.68 599.45
  L 325.14 601.60
  L 328.52 603.93
  L 331.03 606.36
  L 333.27 608.94
  L 335.25 611.66
  L 336.95 614.52
  L 336.95 614.52
  L 336.95 614.52
  L 338.80 618.55
  L 340.18 622.83
  L 341.49 629.32
  L 342.10 635.84
  L 342.10 635.84
  L 342.12 639.51
  L 341.92 643.19
  L 341.49 646.87
  L 340.84 650.57
  L 339.43 657.00
  L 340.31 657.44
  L 342.00 657.58
  L 568.23 657.52
  L 569.44 657.25
  L 571.56 657.71
  L 573.38 658.41
  L 574.90 659.36
  L 576.13 660.55
  L 576.13 660.55
  L 576.13 660.55
  L 576.27 660.73
  L 577.48 662.64
  L 578.22 664.66
  L 578.22 664.66
  L 578.22 664.66
  L 578.49 666.40
  L 578.45 668.22
  L 578.10 670.11
  L 577.44 672.08
  L 576.19 673.46
  L 576.19 673.46
  L 573.75 675.44
  L 570.87 676.97
  L 326.50 676.95
  L 323.53 676.62
  L 320.92 675.63
  L 320.92 675.63
  L 318.98 674.29
  L 317.29 672.48
  L 316.10 670.66
  L 315.37 668.95
  L 315.25 667.33
  L 315.65 665.13
  L 317.54 658.72
  L 318.82 654.17
  L 319.23 652.26
  L 320.59 644.00
  L 321.09 637.74
  L 320.98 635.14
  L 320.58 632.39
  L 319.91 629.46
  L 318.96 626.38
  L 317.73 623.35
  L 316.29 621.03
  L 315.01 619.59
  L 313.41 618.22
  L 309.67 615.82
  L 309.67 615.82
  L 307.47 614.77
  L 305.17 613.92
  L 302.76 613.26
  L 300.25 612.79
  L 294.67 611.90
  L 286.00 611.39
  L 281.01 611.02
  L 278.37 610.55
  L 276.30 609.65
  L 274.19 608.02
  L 272.60 606.07
  L 271.73 604.35
  L 271.16 602.44
  L 270.98 599.76
  L 270.92 594.05
  L 271.03 400.50
  L 271.09 400.00
  L 271.32 399.93
  L 271.37 399.89
  L 271.38 399.88
  L 271.46 399.64
  L 271.65 388.50
  L 271.66 210.04
  L 272.33 207.27
  L 273.57 204.91
  L 273.57 204.91
  L 274.81 203.49
  L 276.35 202.27
  L 278.18 201.27
  L 280.30 200.47
  L 310.90 200.60
  L 321.15 200.76
  L 331.37 201.00
  L 491.78 201.01
  L 492.58 200.69
  L 492.93 199.91
  L 493.02 198.49
  L 493.02 198.49
  L 493.02 198.49
  L 493.39 195.55
  L 493.99 192.63
  L 494.83 189.73
  L 495.90 186.85
  L 495.77 186.08
  L 496.08 186.13
  L 496.25 185.86
  L 496.26 185.81
  L 496.16 185.48
  L 495.84 185.34
  L 259.02 185.34
  L 258.47 185.53
  L 258.28 186.08
  L 258.28 655.54
  L 258.37 656.19
  L 258.65 656.66
  L 258.65 656.66
  L 258.65 656.66
  L 259.12 656.93
  L 259.78 657.01
  L 281.22 656.59
  L 282.20 656.83
  L 282.67 657.29
  L 283.28 657.23
  L 284.01 657.49
  L 284.20 657.62
  L 284.56 658.14
  L 284.93 658.33
  L 284.93 658.33
  L 285.23 658.24
  L 285.68 658.75
  L 286.89 659.87
  L 288.28 660.84
  L 289.71 663.02
  L 289.71 663.02
  L 290.72 665.84
  L 291.07 669.00
  L 290.94 690.53
  L 290.72 691.31
  L 290.77 691.39
  L 291.43 691.60
  L 539.43 691.61
  L 563.78 691.69
  L 590.50 692.03
  L 591.33 691.69
  L 591.68 690.86
  L 591.68 690.86
  L 591.61 578.51
  L 591.55 578.01
  L 591.70 577.85
  L 591.62 577.60
  L 591.40 577.42
  L 591.33 577.40
  L 591.11 577.43
  L 591.03 577.74
  L 581.80 590.75
  L 574.87 601.38
  L 574.44 602.30
  L 574.21 603.38
  L 574.30 605.99
  L 574.23 615.50
  L 574.10 617.05
  L 573.79 618.47
  L 573.28 619.74
  L 572.58 620.87
  L 572.58 620.87
  L 572.58 620.87
  L 572.27 621.26
  L 570.09 624.03
  L 568.56 624.87
  L 567.01 625.49
  L 565.46 625.89
  L 563.89 626.07
  L 563.89 626.07
  L 562.17 626.02
  L 560.44 625.71
  L 558.69 625.14
  L 556.93 624.31
  L 555.65 623.38
  L 554.38 621.97
  L 554.34 621.92
  L 553.23 619.99
  L 552.25 617.10
  L 551.87 615.88
  L 551.37 614.66
  L 550.69 613.57
  L 550.69 613.57
  L 550.34 613.14
  L 544.39 607.02
  L 533.59 596.66
  L 481.47 547.76
  L 475.54 542.00
  L 467.82 534.63
  L 455.82 523.28
  L 447.80 515.60
  L 445.19 513.18
  L 432.43 500.93
  L 421.47 490.69
  L 410.94 480.48
  L 404.29 474.22
  L 400.26 470.49
  L 398.62 468.61
  L 397.40 466.54
  L 397.40 466.54
  L 396.47 463.71
  L 396.67 463.14
  L 396.67 463.14
  L 396.83 461.83
  L 396.64 460.43
  L 397.08 458.21
  L 397.93 456.22
  L 397.93 456.22
  L 399.55 454.06
  L 440.93 411.26
  L 448.72 402.89
  L 453.26 398.04
  L 456.84 394.84
  L 458.72 393.66
  L 460.72 392.93
  L 460.72 392.93
  L 460.72 392.93
  L 462.51 392.66
  L 464.39 392.72
  L 466.36 393.11
  L 468.40 393.84
  L 469.52 394.49
  L 470.99 395.64
  L 474.98 399.43
  L 482.16 406.57
  L 489.42 413.41
  L 502.71 426.16
  L 516.79 439.76
  L 524.46 447.03
  L 529.92 452.45
  L 530.44 452.70
  L 530.94 452.44
  L 639.87 337.97
  L 675.06 302.98
  L 675.68 302.77
  L 675.89 301.93
  L 689.39 289.08
  L 702.93 276.24
  L 728.67 253.21
  L 749.57 235.32
  L 764.38 223.30
  L 779.48 211.54
  L 794.86 200.04
  L 810.54 188.79
  L 817.99 183.64
  L 823.24 180.23
  L 823.93 180.06
  L 824.53 180.45
  L 828.83 185.63
  L 829.02 186.15
  L 828.71 186.83
  L 813.19 199.61
  L 801.99 209.25
  L 778.63 230.24
  L 766.84 241.09
  L 737.77 268.77
  L 717.54 288.90
  L 717.44 288.96
  L 717.34 288.94
  L 717.09 288.82
  L 673.02 332.76
  L 670.81 335.12
  L 669.38 336.99
  L 646.42 360.47
  L 638.01 369.19
  L 626.11 382.00
  L 624.28 383.45
  L 624.28 383.45
  L 623.08 384.75
  L 622.03 386.21
  L 609.52 399.42
  L 607.02 401.52
  L 604.79 403.85
  L 604.79 403.85
  L 602.99 406.17
  L 577.16 433.76
  L 575.09 435.45
  L 573.68 437.52
  L 563.07 448.99
  L 562.53 449.22
  L 562.28 449.78
  L 561.83 450.23
  L 556.80 455.43
  L 540.75 472.75
  L 539.19 474.26
  L 537.60 475.53
  L 535.98 476.55
  L 534.33 477.33
  L 532.31 477.51
  L 530.42 477.42
  L 528.65 477.07
  L 526.99 476.47
  L 526.99 476.47
  L 525.70 475.76
  L 522.21 473.53
  L 465.23 418.64
  L 465.13 418.08
  L 464.88 417.68
  L 464.88 417.68
  L 464.00 417.38
  L 463.32 417.58
  L 463.05 417.96
  L 462.96 418.55
  L 431.52 451.43
  L 424.08 459.24
  L 421.50 462.01
  L 421.44 462.08
  L 421.30 462.75
  L 421.70 463.30
  L 423.18 464.14
  L 425.19 466.47
  L 427.43 468.49
  L 429.24 469.78
  L 515.27 551.50
  L 518.14 554.61
  L 521.17 557.55
  L 526.30 561.86
  L 533.83 568.89
  L 541.44 575.84
  L 555.07 589.60
  L 555.51 589.92
  L 555.92 590.00
  L 555.92 590.00
  L 555.92 590.00
  L 556.31 589.83
  L 556.67 589.41
  L 564.33 578.31
  L 589.32 544.05
  L 601.36 528.09
  L 631.78 489.02
  L 651.58 463.99
  L 672.09 438.97
  L 693.30 413.97
  L 715.23 388.99
  L 728.54 374.56
  L 751.19 350.63
  L 776.16 325.72
  L 795.56 307.37
  L 807.69 296.20
  L 826.42 279.80
  L 845.52 263.65
  L 865.00 247.75
  L 884.86 232.10
  L 894.77 224.71
  L 895.34 224.42
  L 895.87 224.38
  L 896.35 224.60
  L 896.78 225.09
  L 898.73 228.05
  L 899.03 228.67
  L 899.07 229.26
  L 899.07 229.26
  L 898.87 229.81
  L 898.43 230.32
  L 872.44 253.64
  L 862.90 262.56
  L 855.66 269.65
  L 816.42 309.04
  L 802.51 323.39
  L 772.39 355.49
  L 758.81 370.19
  L 734.35 397.35
  L 718.83 415.34
  L 703.18 433.52
  L 691.32 447.58
  L 671.69 471.52
  L 652.19 495.87
  L 632.80 520.63
  L 613.54 545.79
  L 612.43 547.62
  L 612.26 548.40
  L 612.12 554.00
  L 612.02 693.50
  L 611.82 701.26
  L 611.43 703.63
  L 610.63 705.57
  L 609.07 707.54
  L 607.55 708.78
  L 605.89 709.75
  L 605.89 709.75
  L 603.10 710.71
  L 600.00 711.03
  L 282.25 710.99
  L 279.56 710.81
  L 277.17 710.28
  L 275.11 709.40
  L 273.35 708.16
  L 273.35 708.16
  L 273.35 708.16
  L 271.90 706.55
  L 270.76 704.57
  L 269.94 702.24
  L 269.45 699.54
  L 269.76 697.78
  L 269.51 696.22
  L 269.86 692.02
  L 269.98 687.85
  L 269.87 683.70
  L 269.53 679.59
  L 269.73 677.43
  L 269.59 676.78
  L 269.29 676.43
  L 269.29 676.43
  L 269.14 676.37
  L 266.99 676.15
  L 249.48 676.07
  L 247.03 675.89
  L 244.85 675.40
  L 242.93 674.60
  L 241.28 673.48
  L 241.28 673.48
  L 241.28 673.48
  L 241.28 673.48
  L 239.92 672.08
  L 238.81 670.37
  L 237.95 668.37
  L 237.35 666.06
  L 237.89 650.59
  L 237.99 635.13
  L 237.48 616.04
  L 237.78 603.50
  L 238.03 175.52
  L 238.22 173.12
  L 238.84 171.11
  L 239.69 169.71
  L 240.91 168.36
  L 241.52 167.83
  L 243.40 166.60
  L 245.56 165.71
  L 248.01 165.19
  L 250.75 165.01
  L 512.28 164.97
  L 517.49 165.06
  L 521.77 165.33
  L 525.13 165.77
  L 527.55 166.40
  L 529.23 167.10
  L 532.10 168.78
  L 534.77 171.02
  L 537.05 173.65
  L 539.03 176.80
  L 540.62 180.28
  L 541.81 184.16
  L 542.53 188.19
  L 542.76 192.21
  Z"
/>
<path fill="#838383" d="
  M 495.77 186.08
  L 259.98 186.03
  L 259.98 186.03
  L 259.28 186.32
  L 258.99 187.03
  L 258.99 655.43
  L 259.10 655.78
  L 259.45 655.90
  L 275.73 655.95
  L 278.39 656.07
  L 280.97 656.53
  L 281.22 656.59
  L 259.78 657.01
  L 259.12 656.93
  L 258.65 656.66
  L 258.65 656.66
  L 258.65 656.66
  L 258.37 656.19
  L 258.28 655.54
  L 258.28 186.08
  L 258.47 185.53
  L 259.02 185.34
  L 495.84 185.34
  L 496.16 185.48
  L 496.26 185.81
  L 496.25 185.86
  L 496.08 186.13
  L 495.77 186.08
  Z"
/>
<path fill="#838383" d="
  M 542.76 192.21
  L 543.14 205.49
  L 542.99 218.76
  L 542.74 224.88
  L 542.70 224.26
  L 542.70 224.26
  L 542.70 224.26
  L 542.37 216.27
  L 542.27 208.26
  L 542.40 200.24
  L 542.76 192.21
  Z"
/>
<path fill="#838383" d="
  M 530.41 219.73
  L 529.97 192.55
  L 530.58 199.24
  L 530.86 206.00
  L 530.80 212.83
  L 530.41 219.73
  Z"
/>
<ellipse fill="#29689d" cx="0.00" cy="0.00" transform="translate(608.96,203.40) rotate(106.9)" rx="10.58" ry="10.35"/>
<path fill="#29689d" d="
  M 529.67 505.88
  L 530.46 505.84
  L 531.12 505.41
  L 558.88 474.95
  L 587.64 444.27
  L 601.63 430.00
  L 615.58 415.68
  L 622.60 408.22
  L 629.58 401.46
  L 645.97 385.60
  L 660.35 371.71
  L 692.82 341.78
  L 725.62 312.22
  L 739.59 300.02
  L 759.72 282.84
  L 762.08 280.84
  L 776.44 268.82
  L 791.18 256.84
  L 806.28 244.90
  L 821.75 233.00
  L 834.06 223.86
  L 847.32 214.41
  L 861.53 204.64
  L 876.70 194.56
  L 877.32 194.27
  L 877.85 194.27
  L 877.85 194.27
  L 878.29 194.55
  L 878.65 195.09
  L 878.89 195.59
  L 879.09 196.23
  L 879.06 196.81
  L 878.44 197.70
  L 853.94 217.69
  L 834.87 234.22
  L 816.30 251.11
  L 798.25 268.36
  L 780.71 285.96
  L 760.09 307.77
  L 733.82 336.56
  L 713.72 359.22
  L 694.83 381.22
  L 677.16 402.54
  L 660.71 423.20
  L 633.68 458.12
  L 617.76 479.26
  L 588.50 519.49
  L 573.58 540.56
  L 557.67 563.94
  L 555.78 566.62
  L 554.37 568.29
  L 554.10 568.43
  L 553.82 568.30
  L 441.57 463.52
  L 441.25 462.89
  L 441.44 462.20
  L 444.65 458.14
  L 457.35 444.10
  L 459.68 441.73
  L 463.64 438.08
  L 464.03 437.90
  L 464.43 438.04
  L 469.52 442.04
  L 475.73 448.88
  L 484.59 458.23
  L 495.54 469.87
  L 510.43 485.80
  L 524.31 499.76
  L 526.57 502.36
  L 528.66 505.09
  L 529.17 505.63
  L 529.67 505.88
  Z"
/>
<path fill="#838383" d="
  M 310.90 200.60
  L 280.30 200.47
  L 290.97 199.90
  L 300.93 199.97
  L 310.90 200.60
  Z"
/>
<ellipse fill="#29689d" cx="0.00" cy="0.00" transform="translate(643.87,211.58) rotate(8.8)" rx="10.59" ry="10.38"/>
<path fill="#838383" d="
  M 271.09 400.00
  L 271.00 389.75
  L 271.00 213.00
  L 271.17 211.25
  L 271.66 210.04
  L 271.65 388.50
  L 271.46 399.64
  L 271.38 399.88
  L 271.37 399.89
  L 271.32 399.93
  L 271.09 400.00
  Z"
/>
<ellipse fill="#29689d" cx="0.00" cy="0.00" transform="translate(678.63,223.66) rotate(-29.7)" rx="10.65" ry="10.39"/>
<path fill="#838383" d="
  M 292.21 220.98
  L 291.99 591.85
  L 291.40 587.60
  L 291.20 582.25
  L 291.13 296.00
  L 291.31 276.00
  L 291.39 260.81
  L 291.23 248.03
  L 291.12 234.51
  L 291.45 220.97
  L 291.48 220.84
  L 291.74 220.66
  L 292.03 220.77
  L 292.21 220.98
  Z"
/>
<path fill="#838383" d="
  M 494.46 228.98
  L 494.05 226.43
  L 494.05 226.43
  L 493.98 224.03
  L 494.20 221.61
  L 494.56 223.58
  L 494.71 226.25
  L 494.46 228.98
  Z"
/>
<path fill="#838383" d="
  M 495.28 238.01
  L 494.99 234.42
  L 495.11 234.68
  L 495.46 236.23
  L 495.28 238.01
  Z"
/>
<path fill="#838383" d="
  M 552.95 235.89
  L 554.82 236.34
  L 553.69 236.48
  L 553.07 236.21
  L 552.95 235.89
  Z"
/>
<path fill="#838383" d="
  M 532.26 237.62
  L 532.21 237.04
  L 532.01 236.74
  L 532.01 236.74
  L 531.89 236.70
  L 532.15 236.66
  L 532.36 236.69
  L 532.52 236.86
  L 532.59 237.30
  L 532.26 237.62
  Z"
/>
<path fill="#838383" d="
  M 582.78 237.05
  L 577.18 237.61
  L 571.58 237.77
  L 571.58 237.77
  L 566.78 237.59
  L 561.98 237.11
  L 582.78 237.05
  Z"
/>
<path fill="#838383" d="
  M 588.32 237.35
  L 587.39 237.56
  L 586.59 237.51
  L 585.77 237.25
  L 588.32 237.35
  Z"
/>
<path fill="#838383" d="
  M 549.04 247.72
  L 547.72 247.66
  L 547.48 247.57
  L 547.60 247.49
  L 547.60 247.49
  L 548.20 247.40
  L 549.04 247.72
  Z"
/>
<path fill="#838383" d="
  M 587.08 248.99
  L 556.98 248.95
  L 555.63 248.82
  L 554.42 248.41
  L 554.42 248.41
  L 554.27 248.33
  L 568.65 248.52
  L 583.00 248.36
  L 584.70 248.44
  L 586.34 248.76
  L 587.08 248.99
  Z"
/>
<rect fill="#29689d" x="-14.86" y="-10.00" transform="translate(327.11,258.93) rotate(-0.4)" width="29.72" height="20.00" rx="9.37"/>
<rect fill="#29689d" x="365.45" y="248.99" width="55.80" height="20.06" rx="9.66"/>
<path fill="#838383" d="
  M 538.09 259.62
  L 536.94 259.74
  L 535.86 259.59
  L 535.86 259.59
  L 534.48 258.94
  L 538.09 259.62
  Z"
/>
<path fill="#838383" d="
  M 564.80 260.46
  L 543.07 260.22
  L 564.80 260.46
  Z"
/>
<path fill="#838383" d="
  M 555.80 280.67
  L 552.65 281.00
  L 549.56 280.83
  L 547.52 280.44
  L 549.54 280.15
  L 551.55 280.08
  L 551.55 280.08
  L 553.68 280.25
  L 555.80 280.67
  Z"
/>
<path fill="#838383" d="
  M 556.37 357.76
  L 556.01 339.51
  L 555.89 321.27
  L 555.89 321.27
  L 556.00 303.40
  L 556.35 285.54
  L 556.74 303.77
  L 556.88 322.00
  L 556.88 322.00
  L 556.75 339.88
  L 556.37 357.76
  Z"
/>
<path fill="#838383" d="
  M 473.25 287.72
  L 471.81 287.84
  L 467.85 287.94
  L 462.63 287.86
  L 444.53 287.95
  L 426.44 287.81
  L 422.06 287.92
  L 419.48 287.87
  L 416.95 287.56
  L 421.50 287.25
  L 444.02 287.02
  L 466.53 287.09
  L 469.87 287.26
  L 473.25 287.72
  Z"
/>
<path fill="#838383" d="
  M 494.00 287.20
  L 480.00 287.67
  L 483.54 287.19
  L 487.06 286.95
  L 490.54 286.95
  L 494.00 287.20
  Z"
/>
<path fill="#29689d" d="
  M 416.95 287.56
  L 419.48 287.87
  L 422.06 287.92
  L 426.44 287.81
  L 444.53 287.95
  L 462.63 287.86
  L 467.85 287.94
  L 471.81 287.84
  L 473.25 287.72
  L 480.00 287.67
  L 494.00 287.20
  L 497.42 287.97
  L 500.20 289.11
  L 502.35 290.61
  L 503.87 292.49
  L 503.87 292.49
  L 503.87 292.49
  L 504.53 293.95
  L 504.90 295.57
  L 505.00 297.35
  L 504.81 299.30
  L 504.44 300.96
  L 503.92 302.45
  L 503.23 303.77
  L 502.38 304.93
  L 501.20 306.07
  L 499.88 306.93
  L 498.27 307.53
  L 496.49 307.80
  L 486.01 308.03
  L 467.00 308.04
  L 406.75 308.13
  L 403.14 308.00
  L 400.01 307.54
  L 397.66 306.79
  L 396.04 305.74
  L 395.02 304.59
  L 394.00 302.98
  L 393.28 301.25
  L 392.86 299.34
  L 392.77 297.41
  L 393.03 295.50
  L 393.62 293.67
  L 394.48 292.06
  L 395.65 290.62
  L 396.72 289.68
  L 397.78 289.06
  L 399.14 288.58
  L 402.74 288.04
  L 409.89 287.70
  L 416.95 287.56
  Z"
/>
<ellipse fill="#29689d" cx="0.00" cy="0.00" transform="translate(353.01,298.48) rotate(-24.7)" rx="10.68" ry="10.52"/>
<path fill="#838383" d="
  M 717.09 288.82
  L 669.38 336.99
  L 670.81 335.12
  L 673.02 332.76
  L 717.09 288.82
  Z"
/>
<path fill="#29689d" d="
  M 675.89 301.93
  L 675.68 302.77
  L 675.06 302.98
  L 674.75 302.89
  L 674.91 302.81
  L 675.89 301.93
  Z"
/>
<path fill="#838383" d="
  M 674.75 302.89
  L 675.06 302.98
  L 639.87 337.97
  L 674.75 302.89
  Z"
/>
<path fill="#838383" d="
  M 776.16 325.72
  L 751.19 350.63
  L 763.06 338.26
  L 776.16 325.72
  Z"
/>
<path fill="#29689d" d="
  M 442.38 346.69
  L 421.38 346.52
  L 419.60 346.34
  L 418.00 345.94
  L 416.59 345.32
  L 415.36 344.47
  L 415.36 344.47
  L 415.36 344.47
  L 415.36 344.47
  L 414.18 343.23
  L 413.23 341.69
  L 412.53 339.86
  L 412.08 337.73
  L 412.01 336.25
  L 412.20 334.74
  L 412.67 333.16
  L 413.40 331.65
  L 414.34 330.26
  L 415.47 329.03
  L 416.68 328.09
  L 418.01 327.37
  L 420.04 326.95
  L 423.46 326.84
  L 437.48 327.00
  L 444.96 327.10
  L 446.28 327.47
  L 447.49 328.05
  L 447.49 328.05
  L 447.49 328.05
  L 448.57 328.83
  L 449.53 329.81
  L 450.37 330.99
  L 451.09 332.38
  L 451.90 334.91
  L 452.04 337.38
  L 452.04 337.38
  L 451.60 339.61
  L 450.60 341.80
  L 448.99 343.94
  L 447.03 345.47
  L 444.86 346.35
  L 442.38 346.69
  Z"
/>
<rect fill="#29689d" x="340.05" y="326.93" width="46.74" height="20.02" rx="9.60"/>
<path fill="#838383" d="
  M 442.38 346.69
  L 438.08 347.09
  L 433.77 347.27
  L 433.77 347.27
  L 427.58 347.13
  L 421.38 346.52
  L 442.38 346.69
  Z"
/>
<path fill="#838383" d="
  M 646.42 360.47
  L 638.01 369.19
  L 646.42 360.47
  Z"
/>
<ellipse fill="#29689d" cx="0.00" cy="0.00" transform="translate(782.49,377.94) rotate(-19.5)" rx="10.70" ry="10.30"/>
<path fill="#838383" d="
  M 626.11 382.00
  L 622.03 386.21
  L 623.08 384.75
  L 624.28 383.45
  L 626.11 382.00
  Z"
/>
<path fill="#838383" d="
  M 609.52 399.42
  L 602.99 406.17
  L 604.79 403.85
  L 604.79 403.85
  L 607.02 401.52
  L 609.52 399.42
  Z"
/>
<circle fill="#29689d" cx="791.19" cy="412.89" r="10.38"/>
<path fill="#838383" d="
  M 465.23 418.64
  L 464.28 418.20
  L 463.49 418.22
  L 462.96 418.55
  L 463.05 417.96
  L 463.32 417.58
  L 464.00 417.38
  L 464.88 417.68
  L 464.88 417.68
  L 465.13 418.08
  L 465.23 418.64
  Z"
/>
<path fill="#838383" d="
  M 577.16 433.76
  L 573.68 437.52
  L 575.09 435.45
  L 577.16 433.76
  Z"
/>
<ellipse fill="#29689d" cx="0.00" cy="0.00" transform="translate(794.97,448.45) rotate(22.6)" rx="10.66" ry="10.51"/>
<path fill="#838383" d="
  M 524.46 447.03
  L 516.79 439.76
  L 524.46 447.03
  Z"
/>
<path fill="#838383" d="
  M 563.07 448.99
  L 562.28 449.78
  L 562.53 449.22
  L 563.07 448.99
  Z"
/>
<path fill="#838383" d="
  M 561.83 450.23
  L 556.80 455.43
  L 561.83 450.23
  Z"
/>
<path fill="#29689d" d="
  M 431.52 451.43
  L 424.08 459.24
  L 431.52 451.43
  Z"
/>
<path fill="#838383" d="
  M 396.47 463.71
  L 396.38 463.53
  L 396.16 462.14
  L 396.64 460.43
  L 396.83 461.83
  L 396.67 463.14
  L 396.47 463.71
  Z"
/>
<path fill="#838383" d="
  M 429.24 469.78
  L 427.43 468.49
  L 427.43 468.49
  L 425.19 466.47
  L 423.18 464.14
  L 429.24 469.78
  Z"
/>
<path fill="#838383" d="
  M 534.33 477.33
  L 532.17 477.90
  L 530.05 477.97
  L 530.05 477.97
  L 530.05 477.97
  L 528.03 477.57
  L 526.05 476.69
  L 524.11 475.35
  L 522.21 473.53
  L 525.70 475.76
  L 526.99 476.47
  L 528.65 477.07
  L 530.42 477.42
  L 532.31 477.51
  L 534.33 477.33
  Z"
/>
<circle fill="#29689d" cx="793.34" cy="514.34" r="10.49"/>
<circle fill="#29689d" cx="780.73" cy="548.23" r="10.56"/>
<path fill="#838383" d="
  M 526.30 561.86
  L 521.17 557.55
  L 518.14 554.61
  L 515.27 551.50
  L 526.30 561.86
  Z"
/>
<circle fill="#29689d" cx="763.71" cy="580.14" r="10.60"/>
<path fill="#838383" d="
  M 591.55 578.01
  L 591.03 577.74
  L 591.11 577.43
  L 591.33 577.40
  L 591.40 577.42
  L 591.62 577.60
  L 591.70 577.85
  L 591.55 578.01
  Z"
/>
<path fill="#838383" d="
  M 290.94 690.53
  L 291.03 690.90
  L 291.24 690.97
  L 589.99 691.01
  L 590.72 690.71
  L 591.02 689.98
  L 590.87 634.81
  L 591.00 579.50
  L 591.16 579.05
  L 591.61 578.51
  L 591.68 690.86
  L 591.68 690.86
  L 591.33 691.69
  L 590.50 692.03
  L 563.78 691.69
  L 539.43 691.61
  L 291.43 691.60
  L 290.77 691.39
  L 290.72 691.31
  L 290.94 690.53
  Z"
/>
<path fill="#838383" d="
  M 309.55 594.14
  L 309.18 594.30
  L 308.52 594.20
  L 307.76 593.65
  L 309.55 594.14
  Z"
/>
<path fill="#838383" d="
  M 328.52 603.93
  L 325.14 601.60
  L 321.68 599.45
  L 318.13 597.50
  L 314.50 595.73
  L 314.49 595.73
  L 317.71 596.87
  L 320.78 598.31
  L 320.78 598.31
  L 320.78 598.31
  L 324.81 600.83
  L 328.52 603.93
  Z"
/>
<path fill="#838383" d="
  M 574.30 605.99
  L 574.83 610.13
  L 575.00 614.25
  L 574.89 616.09
  L 574.56 617.80
  L 574.02 619.36
  L 573.26 620.80
  L 573.26 620.80
  L 573.26 620.80
  L 571.88 622.54
  L 570.09 624.03
  L 572.27 621.26
  L 572.58 620.87
  L 572.58 620.87
  L 573.28 619.74
  L 573.79 618.47
  L 574.10 617.05
  L 574.23 615.50
  L 574.30 605.99
  Z"
/>
<path fill="#838383" d="
  M 294.67 611.90
  L 286.00 611.39
  L 294.67 611.90
  Z"
/>
<path fill="#838383" d="
  M 237.35 666.06
  L 236.88 649.71
  L 236.90 633.37
  L 236.90 633.37
  L 237.48 616.04
  L 237.99 635.13
  L 237.89 650.59
  L 237.35 666.06
  Z"
/>
<path fill="#838383" d="
  M 386.74 619.62
  L 373.77 619.61
  L 376.61 619.23
  L 376.61 619.23
  L 381.64 619.09
  L 386.74 619.62
  Z"
/>
<path fill="#838383" d="
  M 419.98 619.55
  L 399.77 619.60
  L 406.49 618.99
  L 413.19 618.97
  L 419.98 619.55
  Z"
/>
<path fill="#29689d" d="
  M 515.29 639.53
  L 466.65 639.62
  L 466.12 639.54
  L 466.12 639.54
  L 466.12 639.54
  L 464.56 639.10
  L 463.05 638.33
  L 461.60 637.24
  L 460.21 635.82
  L 458.95 633.98
  L 458.22 632.06
  L 457.98 629.60
  L 458.48 626.96
  L 459.68 624.35
  L 461.47 621.99
  L 461.52 621.93
  L 461.52 621.93
  L 461.52 621.93
  L 462.57 621.08
  L 463.88 620.48
  L 465.44 620.11
  L 467.26 619.99
  L 492.01 619.74
  L 513.25 618.96
  L 515.07 618.96
  L 516.79 619.16
  L 518.42 619.57
  L 519.96 620.17
  L 519.96 620.17
  L 519.96 620.17
  L 522.48 621.78
  L 524.69 624.04
  L 525.38 625.11
  L 525.85 626.34
  L 526.07 627.70
  L 526.07 630.41
  L 525.68 632.76
  L 524.91 634.76
  L 523.75 636.42
  L 522.21 637.72
  L 520.29 638.67
  L 517.98 639.28
  L 515.29 639.53
  Z"
/>
<path fill="#242426" d="
  M 373.77 619.61
  L 386.74 619.62
  L 399.77 619.60
  L 419.98 619.55
  L 422.45 620.30
  L 424.53 621.32
  L 426.22 622.59
  L 427.51 624.12
  L 427.51 624.12
  L 428.15 625.28
  L 428.62 626.56
  L 429.03 629.45
  L 428.76 632.35
  L 427.80 634.87
  L 427.80 634.87
  L 426.91 636.19
  L 425.74 637.43
  L 424.47 638.38
  L 423.06 639.07
  L 421.53 639.54
  L 419.81 639.81
  L 417.72 639.92
  L 374.83 640.00
  L 370.08 639.68
  L 368.33 639.29
  L 367.01 638.75
  L 365.74 637.91
  L 364.64 636.92
  L 363.58 635.60
  L 362.77 634.16
  L 362.21 632.61
  L 361.90 630.99
  L 361.84 629.35
  L 362.05 627.71
  L 362.52 626.12
  L 363.26 624.60
  L 364.67 622.76
  L 366.16 621.50
  L 366.16 621.50
  L 366.16 621.50
  L 367.77 620.60
  L 369.57 619.98
  L 371.57 619.65
  L 373.77 619.61
  Z"
/>
<ellipse fill="#29689d" cx="0.00" cy="0.00" transform="translate(710.94,638.59) rotate(-4.0)" rx="10.75" ry="10.37"/>
<path fill="#838383" d="
  M 515.29 639.53
  L 504.69 639.96
  L 494.08 640.17
  L 494.08 640.17
  L 494.08 640.17
  L 480.37 640.09
  L 466.65 639.62
  L 515.29 639.53
  Z"
/>
<ellipse fill="#29689d" cx="0.00" cy="0.00" transform="translate(679.02,655.22) rotate(-3.7)" rx="10.82" ry="10.35"/>
<path fill="#838383" d="
  M 283.28 657.23
  L 282.67 657.29
  L 282.20 656.83
  L 282.96 656.98
  L 283.28 657.23
  Z"
/>
<ellipse fill="#29689d" cx="0.00" cy="0.00" transform="translate(644.27,667.19) rotate(18.6)" rx="10.70" ry="10.38"/>
<path fill="#838383" d="
  M 569.44 657.25
  L 568.23 657.52
  L 342.00 657.58
  L 340.31 657.44
  L 339.43 657.00
  L 569.44 657.25
  Z"
/>
<path fill="#838383" d="
  M 285.23 658.24
  L 284.93 658.33
  L 284.93 658.33
  L 284.56 658.14
  L 284.20 657.62
  L 285.15 658.13
  L 285.23 658.24
  Z"
/>
<path fill="#838383" d="
  M 288.28 660.84
  L 286.89 659.87
  L 285.68 658.75
  L 285.23 658.24
  L 286.19 658.71
  L 287.33 659.62
  L 288.28 660.84
  Z"
/>
<path fill="#838383" d="
  M 577.44 672.08
  L 576.63 673.55
  L 575.59 674.78
  L 575.59 674.78
  L 574.62 675.55
  L 573.51 676.17
  L 570.87 676.97
  L 573.75 675.44
  L 576.19 673.46
  L 577.44 672.08
  Z"
/>
<path fill="#838383" d="
  M 269.53 679.59
  L 269.19 678.91
  L 269.19 678.91
  L 268.97 677.71
  L 269.14 676.37
  L 269.29 676.43
  L 269.29 676.43
  L 269.59 676.78
  L 269.73 677.43
  L 269.53 679.59
  Z"
/>
<path fill="#838383" d="
  M 269.45 699.54
  L 269.20 698.52
  L 269.18 697.53
  L 269.51 696.22
  L 269.76 697.78
  L 269.45 699.54
  Z"
/>
<path fill="#838383" d="
  M 645.33 750.38
  L 642.95 750.68
  L 640.58 750.73
  L 637.73 750.46
  L 639.29 750.13
  L 642.27 749.96
  L 645.33 750.38
  Z"
/>
<path fill="#242426" d="
  M 671.98 771.49
  L 669.17 772.60
  L 665.42 767.84
  L 662.83 765.44
  L 660.11 763.36
  L 657.25 761.58
  L 654.26 760.10
  L 654.26 760.10
  L 650.93 758.87
  L 647.44 757.99
  L 643.81 757.46
  L 640.02 757.28
  L 636.57 757.73
  L 630.78 759.07
  L 628.87 759.45
  L 627.24 760.25
  L 627.24 760.25
  L 626.28 761.04
  L 621.35 764.67
  L 618.41 767.17
  L 615.92 769.87
  L 613.85 772.76
  L 612.23 775.84
  L 612.23 775.84
  L 612.23 775.84
  L 611.64 777.28
  L 610.50 780.86
  L 609.69 784.59
  L 609.19 788.48
  L 609.02 792.51
  L 609.07 794.38
  L 609.48 798.14
  L 610.32 801.87
  L 611.59 805.59
  L 613.28 809.28
  L 614.93 812.13
  L 616.78 814.72
  L 618.85 817.06
  L 621.13 819.13
  L 624.35 821.42
  L 627.98 823.29
  L 631.94 824.68
  L 636.24 825.58
  L 640.87 826.00
  L 642.69 825.93
  L 645.04 825.58
  L 651.32 824.08
  L 653.97 823.21
  L 656.43 822.15
  L 658.68 820.87
  L 660.74 819.40
  L 663.24 817.25
  L 665.48 815.02
  L 667.47 812.72
  L 669.20 810.33
  L 669.38 810.19
  L 669.61 810.23
  L 675.61 813.33
  L 675.72 813.44
  L 675.68 813.60
  L 673.43 816.88
  L 670.97 819.89
  L 668.28 822.61
  L 665.39 825.05
  L 665.39 825.05
  L 665.39 825.05
  L 661.71 827.55
  L 657.74 829.67
  L 651.81 831.35
  L 645.80 832.36
  L 645.80 832.36
  L 641.23 832.69
  L 636.62 832.64
  L 633.23 832.28
  L 629.96 831.64
  L 626.83 830.72
  L 623.83 829.51
  L 623.83 829.51
  L 620.67 827.86
  L 617.67 825.86
  L 614.83 823.53
  L 612.15 820.85
  L 610.05 818.37
  L 608.17 815.79
  L 606.51 813.11
  L 605.08 810.32
  L 605.08 810.32
  L 605.08 810.32
  L 605.08 810.32
  L 603.78 807.18
  L 602.74 803.91
  L 601.97 800.52
  L 601.46 797.01
  L 601.61 786.85
  L 601.95 783.41
  L 602.61 780.05
  L 602.61 780.05
  L 602.61 780.05
  L 602.61 780.05
  L 603.73 776.33
  L 605.26 772.71
  L 607.19 769.19
  L 609.52 765.77
  L 611.93 762.83
  L 614.36 760.39
  L 616.93 758.33
  L 620.14 756.15
  L 623.13 754.44
  L 626.24 753.02
  L 626.24 753.02
  L 626.24 753.02
  L 628.98 752.05
  L 631.81 751.30
  L 634.73 750.77
  L 637.73 750.46
  L 640.58 750.73
  L 642.95 750.68
  L 645.33 750.38
  L 649.14 750.88
  L 652.78 751.71
  L 656.26 752.86
  L 659.58 754.33
  L 659.58 754.33
  L 659.58 754.33
  L 659.58 754.33
  L 663.25 756.47
  L 666.70 759.06
  L 669.93 762.09
  L 672.93 765.57
  L 674.94 768.59
  L 675.02 769.02
  L 674.76 769.38
  L 671.98 771.49
  Z"
/>
<path fill="#838383" d="
  M 432.26 751.51
  L 423.98 751.59
  L 426.13 751.17
  L 428.28 751.03
  L 428.28 751.03
  L 430.27 751.15
  L 432.26 751.51
  Z"
/>
<path fill="#838383" d="
  M 480.99 751.37
  L 477.38 751.70
  L 472.50 751.87
  L 457.69 751.89
  L 445.00 751.47
  L 453.96 751.04
  L 462.95 750.89
  L 471.96 750.99
  L 480.99 751.37
  Z"
/>
<path fill="#838383" d="
  M 696.53 753.61
  L 696.38 752.95
  L 696.38 752.95
  L 695.56 752.14
  L 694.05 751.65
  L 691.85 751.50
  L 688.95 751.67
  L 691.71 751.05
  L 693.85 750.87
  L 695.38 751.11
  L 696.30 751.77
  L 696.30 751.77
  L 696.60 752.57
  L 696.53 753.61
  Z"
/>
<path fill="#838383" d="
  M 776.72 751.58
  L 766.96 751.68
  L 767.44 751.11
  L 767.52 751.10
  L 771.94 751.04
  L 776.72 751.58
  Z"
/>
<path fill="#838383" d="
  M 820.63 757.90
  L 820.49 752.54
  L 820.22 751.94
  L 819.62 751.70
  L 783.49 751.72
  L 786.33 751.20
  L 790.00 751.02
  L 818.94 751.12
  L 819.65 751.25
  L 820.28 751.60
  L 820.77 752.14
  L 821.05 752.81
  L 821.19 755.12
  L 820.63 757.90
  Z"
/>
<path fill="#838383" d="
  M 874.90 751.68
  L 861.00 751.92
  L 850.15 752.01
  L 837.99 751.46
  L 849.97 751.04
  L 865.25 750.93
  L 870.65 751.13
  L 874.90 751.68
  Z"
/>
<path fill="#242426" d="
  M 593.22 831.51
  L 590.28 831.30
  L 588.13 831.64
  L 587.90 831.54
  L 587.82 831.48
  L 587.73 831.35
  L 585.12 826.34
  L 582.66 821.12
  L 580.34 815.70
  L 578.18 810.06
  L 578.30 809.99
  L 577.59 809.55
  L 576.87 809.40
  L 560.19 809.20
  L 543.49 809.39
  L 537.75 808.95
  L 535.60 809.00
  L 534.76 809.24
  L 534.01 809.68
  L 533.22 810.54
  L 531.60 814.57
  L 528.19 822.37
  L 523.27 831.75
  L 520.20 831.22
  L 518.00 831.11
  L 517.30 831.06
  L 516.81 830.79
  L 516.81 830.79
  L 516.51 830.32
  L 551.57 751.84
  L 552.03 751.40
  L 552.67 751.43
  L 552.69 751.44
  L 554.24 751.88
  L 556.55 751.95
  L 558.95 752.05
  L 559.48 752.27
  L 559.85 752.67
  L 561.85 756.77
  L 583.09 803.64
  L 589.23 816.74
  L 594.15 827.73
  L 595.18 830.84
  L 595.17 831.13
  L 594.72 831.54
  L 594.08 831.37
  L 594.04 831.34
  L 594.04 831.34
  L 593.70 831.30
  L 593.22 831.51
  Z
  M 537.02 802.56
  L 537.01 802.87
  L 537.24 803.08
  L 537.24 803.08
  L 537.37 803.11
  L 573.95 803.04
  L 574.18 802.97
  L 574.31 802.50
  L 555.95 761.35
  L 555.72 761.14
  L 555.44 761.15
  L 555.24 761.35
  L 537.02 802.56
  Z"
/>
<path fill="#242426" d="
  M 423.98 751.59
  L 432.26 751.51
  L 432.63 751.71
  L 432.63 751.71
  L 432.93 752.14
  L 433.06 752.76
  L 433.11 756.80
  L 432.76 757.56
  L 431.98 757.87
  L 405.08 757.87
  L 404.31 758.19
  L 403.99 758.96
  L 403.99 831.25
  L 403.87 831.60
  L 403.50 831.59
  L 402.01 831.27
  L 400.79 831.51
  L 400.79 831.51
  L 400.57 831.63
  L 400.28 831.38
  L 400.28 831.38
  L 399.74 831.23
  L 399.04 831.35
  L 398.45 831.30
  L 397.49 831.69
  L 396.76 830.51
  L 396.61 829.45
  L 396.85 810.76
  L 396.40 792.03
  L 396.45 772.72
  L 396.53 758.50
  L 396.52 758.41
  L 396.34 758.24
  L 396.10 758.29
  L 396.08 758.31
  L 395.90 758.78
  L 395.78 758.39
  L 395.55 758.06
  L 395.15 757.94
  L 369.20 757.94
  L 368.27 757.63
  L 367.97 756.72
  L 367.97 753.24
  L 368.26 752.37
  L 369.14 752.07
  L 423.98 751.59
  Z"
/>
<path fill="#242426" d="
  M 507.52 772.56
  L 507.15 773.95
  L 507.05 775.34
  L 507.20 776.62
  L 507.58 777.89
  L 507.14 781.24
  L 506.33 784.31
  L 505.14 787.11
  L 503.58 789.65
  L 503.58 789.65
  L 501.68 791.88
  L 499.42 793.84
  L 496.80 795.55
  L 493.82 796.99
  L 488.37 799.14
  L 488.16 799.35
  L 488.17 799.64
  L 488.19 799.67
  L 508.82 831.35
  L 499.98 831.56
  L 479.72 799.84
  L 466.49 799.26
  L 453.10 799.38
  L 452.80 799.46
  L 452.58 799.70
  L 452.51 799.98
  L 452.20 800.01
  L 452.05 800.12
  L 452.00 800.31
  L 452.00 831.37
  L 451.85 831.84
  L 451.38 831.99
  L 445.58 831.99
  L 445.18 831.86
  L 445.04 831.45
  L 445.00 751.47
  L 457.69 751.89
  L 472.50 751.87
  L 477.38 751.70
  L 480.99 751.37
  L 486.46 752.19
  L 490.65 753.17
  L 494.39 754.61
  L 497.70 756.51
  L 500.56 758.85
  L 500.56 758.85
  L 502.95 761.61
  L 504.90 764.82
  L 506.43 768.47
  L 507.52 772.56
  Z
  M 499.49 773.52
  L 499.51 772.01
  L 499.27 770.56
  L 498.60 768.79
  L 497.52 767.12
  L 497.45 767.20
  L 497.34 766.82
  L 496.44 765.23
  L 495.29 763.92
  L 495.29 763.92
  L 493.50 762.69
  L 490.54 760.73
  L 488.55 759.92
  L 485.28 759.30
  L 480.45 758.51
  L 466.66 757.95
  L 452.77 758.01
  L 452.20 758.21
  L 452.00 758.81
  L 452.00 792.44
  L 452.13 792.83
  L 452.50 792.96
  L 470.81 793.03
  L 482.99 792.66
  L 486.63 792.13
  L 490.05 791.05
  L 490.05 791.05
  L 491.35 790.46
  L 494.23 788.64
  L 496.46 786.34
  L 496.46 786.34
  L 497.48 784.77
  L 498.59 782.34
  L 498.59 782.34
  L 498.59 782.34
  L 499.19 780.27
  L 499.55 778.12
  L 499.65 775.86
  L 499.49 773.52
  Z"
/>
<path fill="#242426" d="
  M 783.49 751.72
  L 819.62 751.70
  L 820.22 751.94
  L 820.49 752.54
  L 820.63 757.90
  L 774.66 758.04
  L 774.12 758.15
  L 773.67 758.45
  L 773.36 758.91
  L 773.25 759.44
  L 773.04 787.20
  L 814.19 787.49
  L 814.68 787.64
  L 814.91 788.12
  L 815.11 790.73
  L 814.84 792.97
  L 814.62 793.34
  L 814.21 793.45
  L 794.00 793.25
  L 773.19 793.81
  L 773.58 808.10
  L 773.19 812.44
  L 773.07 816.70
  L 773.21 820.87
  L 773.61 824.96
  L 821.64 825.08
  L 821.54 831.13
  L 816.79 831.46
  L 765.64 831.27
  L 766.02 752.93
  L 766.13 752.44
  L 766.39 752.07
  L 766.96 751.68
  L 776.72 751.58
  L 783.49 751.72
  Z"
/>
<path fill="#242426" d="
  M 900.48 773.86
  L 900.21 775.05
  L 900.15 776.22
  L 900.49 778.02
  L 900.24 780.66
  L 899.73 783.11
  L 898.94 785.46
  L 897.89 787.62
  L 896.58 789.63
  L 895.04 791.46
  L 893.22 793.16
  L 891.20 794.67
  L 888.86 796.07
  L 886.34 797.28
  L 883.54 798.33
  L 880.61 799.18
  L 880.28 799.40
  L 880.38 799.79
  L 901.01 831.06
  L 901.06 831.39
  L 900.83 831.64
  L 900.83 831.64
  L 900.77 831.66
  L 897.69 832.11
  L 895.39 832.06
  L 893.08 831.67
  L 892.30 831.19
  L 891.42 830.07
  L 871.81 799.85
  L 859.11 799.36
  L 845.80 799.57
  L 845.68 799.62
  L 845.62 799.74
  L 845.54 799.99
  L 845.29 800.06
  L 845.28 800.07
  L 845.18 800.23
  L 845.22 800.39
  L 845.46 800.88
  L 845.36 800.88
  L 845.26 800.91
  L 845.24 800.98
  L 845.44 811.49
  L 845.37 824.19
  L 845.31 824.71
  L 845.40 825.97
  L 845.34 827.10
  L 845.65 828.21
  L 845.41 828.70
  L 845.29 829.81
  L 845.24 830.34
  L 845.00 830.80
  L 844.59 831.14
  L 844.08 831.29
  L 844.06 831.29
  L 838.01 831.71
  L 837.99 751.46
  L 850.15 752.01
  L 861.00 751.92
  L 874.90 751.68
  L 878.92 751.99
  L 882.66 752.74
  L 886.14 753.95
  L 889.33 755.60
  L 889.33 755.60
  L 889.33 755.60
  L 892.87 758.22
  L 895.99 761.51
  L 897.66 763.89
  L 898.94 766.43
  L 900.04 770.01
  L 900.48 773.86
  Z
  M 845.89 758.31
  L 845.62 758.31
  L 845.41 758.41
  L 845.34 758.63
  L 845.49 792.98
  L 864.10 793.06
  L 874.75 792.80
  L 879.07 792.24
  L 882.68 791.18
  L 884.51 790.30
  L 886.18 789.21
  L 887.75 787.86
  L 889.15 786.28
  L 890.39 784.48
  L 891.45 782.45
  L 892.19 780.31
  L 892.61 778.12
  L 892.61 778.12
  L 892.62 774.76
  L 891.90 771.32
  L 891.25 769.08
  L 890.41 767.26
  L 889.30 765.55
  L 888.12 764.01
  L 886.74 762.70
  L 886.74 762.70
  L 884.74 761.41
  L 882.44 760.49
  L 878.40 759.20
  L 874.38 758.57
  L 860.88 757.95
  L 846.48 758.06
  L 846.26 758.10
  L 846.17 758.14
  L 845.89 758.31
  Z"
/>
<path fill="#242426" d="
  M 696.53 753.61
  L 696.24 756.01
  L 696.18 758.32
  L 696.36 760.54
  L 696.76 762.67
  L 696.49 762.73
  L 696.28 763.32
  L 696.24 780.29
  L 696.45 797.58
  L 696.49 797.71
  L 696.73 797.84
  L 696.96 797.70
  L 697.24 797.09
  L 697.04 797.26
  L 709.74 784.06
  L 717.04 776.94
  L 741.12 753.30
  L 742.80 752.20
  L 744.77 751.81
  L 750.47 751.81
  L 751.34 751.91
  L 751.74 752.20
  L 751.74 752.20
  L 751.67 752.69
  L 751.12 753.38
  L 721.36 783.10
  L 716.79 787.11
  L 716.76 787.14
  L 716.37 788.03
  L 716.74 788.93
  L 722.28 794.36
  L 751.83 827.48
  L 753.47 829.75
  L 754.17 830.53
  L 754.29 831.05
  L 754.29 831.05
  L 753.83 831.33
  L 752.79 831.36
  L 749.57 831.37
  L 745.77 831.79
  L 744.67 831.18
  L 743.60 830.29
  L 741.53 827.70
  L 741.24 826.97
  L 740.97 827.16
  L 713.60 796.02
  L 713.30 795.02
  L 713.30 795.02
  L 712.78 794.50
  L 712.00 794.15
  L 711.63 793.48
  L 711.22 793.22
  L 711.22 793.22
  L 710.84 793.31
  L 708.97 794.72
  L 708.97 794.72
  L 707.79 795.98
  L 706.78 797.41
  L 704.51 799.19
  L 702.42 801.14
  L 702.42 801.14
  L 699.36 804.73
  L 698.19 805.61
  L 697.29 806.56
  L 696.66 807.55
  L 696.29 808.61
  L 696.29 808.61
  L 696.28 808.68
  L 696.30 808.69
  L 696.39 809.30
  L 696.39 830.21
  L 696.12 831.04
  L 695.30 831.34
  L 689.10 831.59
  L 688.95 751.67
  L 691.85 751.50
  L 694.05 751.65
  L 695.56 752.14
  L 696.38 752.95
  L 696.38 752.95
  L 696.53 753.61
  Z"
/>
<path fill="#838383" d="
  M 123.68 752.06
  L 123.49 792.40
  L 123.37 792.14
  L 123.15 791.01
  L 122.98 773.50
  L 123.22 752.77
  L 123.46 752.02
  L 123.68 752.06
  Z"
/>
<path fill="#242426" d="
  M 188.36 768.37
  L 188.09 770.64
  L 188.20 772.86
  L 188.20 772.86
  L 188.53 774.40
  L 188.15 777.06
  L 187.47 779.49
  L 186.49 781.70
  L 185.22 783.68
  L 185.22 783.68
  L 185.22 783.68
  L 183.78 785.31
  L 182.08 786.75
  L 180.13 787.99
  L 177.93 789.04
  L 177.26 789.38
  L 177.06 789.66
  L 177.06 789.66
  L 177.37 789.90
  L 178.24 790.08
  L 179.69 790.40
  L 181.15 790.97
  L 184.27 792.87
  L 187.45 795.72
  L 190.02 798.93
  L 191.04 801.07
  L 191.66 803.73
  L 191.92 807.05
  L 191.86 811.52
  L 191.85 811.79
  L 191.39 815.34
  L 190.23 818.50
  L 189.06 820.57
  L 187.73 822.44
  L 186.25 824.13
  L 184.62 825.63
  L 184.62 825.63
  L 184.62 825.63
  L 182.88 826.91
  L 181.00 828.00
  L 178.97 828.92
  L 176.79 829.66
  L 170.69 831.00
  L 168.75 831.40
  L 124.29 831.22
  L 123.81 831.02
  L 123.61 830.54
  L 123.58 824.03
  L 123.52 807.58
  L 123.77 799.06
  L 123.49 792.40
  L 123.68 752.06
  L 163.24 751.73
  L 166.31 751.83
  L 169.28 752.19
  L 172.15 752.82
  L 174.92 753.72
  L 174.92 753.72
  L 177.75 754.95
  L 180.47 756.49
  L 182.19 757.71
  L 183.71 759.05
  L 185.02 760.51
  L 186.13 762.10
  L 186.13 762.10
  L 187.54 765.06
  L 188.36 768.37
  Z
  M 145.92 779.50
  L 145.39 780.15
  L 145.24 780.77
  L 145.46 781.34
  L 146.01 781.88
  L 155.01 782.17
  L 158.66 782.05
  L 161.76 781.76
  L 163.98 781.14
  L 164.85 780.63
  L 165.56 779.97
  L 166.48 778.29
  L 166.79 776.08
  L 166.48 773.83
  L 166.09 772.91
  L 165.54 772.12
  L 165.54 772.12
  L 165.54 772.12
  L 165.54 772.12
  L 164.76 771.43
  L 163.80 770.89
  L 162.65 770.52
  L 161.32 770.31
  L 154.44 769.95
  L 146.66 770.04
  L 146.21 770.24
  L 146.02 770.69
  L 145.92 779.50
  Z
  M 145.3846 777.2585
  L 145.6598 775.3880
  L 145.5354 773.5015
  L 145.2602 775.3720
  L 145.3846 777.2585
  Z
  M 145.35 777.98
  L 145.44 778.06
  L 145.46 778.05
  L 145.53 777.99
  L 145.53 777.74
  L 145.41 777.52
  L 145.35 777.98
  Z
  M 146.98 799.86
  L 146.71 799.94
  L 146.01 799.80
  L 145.60 800.08
  L 145.44 800.51
  L 145.29 811.79
  L 145.29 811.84
  L 145.65 812.59
  L 146.44 812.86
  L 148.98 812.64
  L 151.83 812.92
  L 157.00 812.99
  L 162.20 812.53
  L 163.36 812.75
  L 164.42 812.63
  L 164.42 812.63
  L 165.72 811.89
  L 166.34 811.68
  L 167.28 811.18
  L 168.07 810.49
  L 168.78 809.58
  L 169.32 808.54
  L 169.67 807.40
  L 169.83 806.23
  L 169.78 805.06
  L 169.53 803.95
  L 168.93 802.76
  L 168.93 802.76
  L 167.78 801.63
  L 166.16 800.84
  L 163.52 800.18
  L 160.69 799.89
  L 146.98 799.86
  Z"
/>
<path fill="#838383" d="
  M 201.70 752.12
  L 201.66 830.44
  L 201.91 831.06
  L 202.53 831.31
  L 222.43 831.31
  L 223.02 831.06
  L 223.27 830.46
  L 223.23 781.43
  L 223.86 784.91
  L 224.10 788.50
  L 224.23 806.87
  L 224.13 825.25
  L 223.82 830.50
  L 223.33 831.46
  L 222.33 831.84
  L 202.31 831.84
  L 201.68 831.61
  L 201.35 831.02
  L 200.96 827.74
  L 200.89 824.25
  L 201.15 807.00
  L 200.83 763.69
  L 201.28 752.39
  L 201.44 752.14
  L 201.67 752.09
  L 201.70 752.12
  Z"
/>
<path fill="#242426" d="
  M 223.23 781.43
  L 223.27 830.46
  L 223.02 831.06
  L 222.43 831.31
  L 202.53 831.31
  L 201.91 831.06
  L 201.66 830.44
  L 201.70 752.12
  L 222.63 752.14
  L 223.02 752.27
  L 223.15 752.65
  L 223.23 781.43
  Z"
/>
<path fill="#838383" d="
  M 237.41 752.15
  L 237.50 830.78
  L 237.50 830.79
  L 237.70 831.24
  L 238.16 831.42
  L 251.08 831.15
  L 264.04 831.08
  L 277.03 831.22
  L 290.04 831.57
  L 238.51 831.81
  L 237.98 831.71
  L 237.52 831.41
  L 237.20 830.97
  L 237.07 830.44
  L 236.90 824.63
  L 236.99 818.65
  L 237.03 806.87
  L 236.88 779.53
  L 237.41 752.15
  Z"
/>
<path fill="#242426" d="
  M 292.31 830.47
  L 292.12 830.71
  L 292.12 830.71
  L 291.53 831.21
  L 290.79 831.56
  L 290.04 831.57
  L 277.03 831.22
  L 264.04 831.08
  L 251.08 831.15
  L 238.16 831.42
  L 237.70 831.24
  L 237.50 830.79
  L 237.50 830.78
  L 237.41 752.15
  L 258.35 752.07
  L 258.72 752.19
  L 258.97 752.69
  L 258.97 811.24
  L 259.20 811.80
  L 259.76 812.03
  L 291.03 812.03
  L 291.95 812.34
  L 292.25 813.25
  L 292.31 830.47
  Z"
/>
<path fill="#242426" d="
  M 322.78 753.95
  L 322.21 811.81
  L 322.21 811.83
  L 322.49 812.48
  L 323.15 812.73
  L 337.59 812.16
  L 355.40 812.12
  L 355.79 812.28
  L 355.95 812.67
  L 355.95 830.21
  L 355.74 830.90
  L 355.09 831.22
  L 351.97 831.73
  L 351.96 831.50
  L 351.95 831.48
  L 351.83 831.34
  L 351.65 831.29
  L 300.84 831.56
  L 301.03 752.67
  L 301.13 752.33
  L 301.67 752.03
  L 322.32 752.03
  L 322.70 752.13
  L 322.96 752.46
  L 323.04 753.12
  L 322.78 753.95
  Z"
/>
<path fill="#838383" d="
  M 322.78 753.95
  L 322.98 811.60
  L 323.11 811.90
  L 323.41 812.03
  L 337.59 812.16
  L 323.15 812.73
  L 322.49 812.48
  L 322.21 811.83
  L 322.21 811.81
  L 322.78 753.95
  Z"
/>
<path fill="#838383" d="
  M 396.45 772.72
  L 395.90 758.78
  L 396.08 758.31
  L 396.10 758.29
  L 396.34 758.24
  L 396.52 758.41
  L 396.52 758.41
  L 396.53 758.50
  L 396.45 772.72
  Z"
/>
<path fill="#838383" d="
  M 845.89 758.31
  L 846.08 775.57
  L 845.49 792.98
  L 845.34 758.63
  L 845.41 758.41
  L 845.62 758.31
  L 845.89 758.31
  Z"
/>
<path fill="#838383" d="
  M 630.78 759.07
  L 626.28 761.04
  L 627.24 760.25
  L 627.24 760.25
  L 628.87 759.45
  L 630.78 759.07
  Z"
/>
<path fill="#838383" d="
  M 889.30 765.55
  L 882.44 760.49
  L 884.74 761.41
  L 886.74 762.70
  L 886.74 762.70
  L 886.74 762.70
  L 888.12 764.01
  L 889.30 765.55
  Z"
/>
<path fill="#838383" d="
  M 696.76 762.67
  L 697.04 797.26
  L 697.24 797.09
  L 696.96 797.70
  L 696.73 797.84
  L 696.49 797.71
  L 696.49 797.71
  L 696.45 797.58
  L 696.24 780.29
  L 696.28 763.32
  L 696.49 762.73
  L 696.76 762.67
  Z"
/>
<path fill="#838383" d="
  M 497.34 766.82
  L 493.50 762.69
  L 495.29 763.92
  L 495.29 763.92
  L 496.44 765.23
  L 497.34 766.82
  Z"
/>
<path fill="#838383" d="
  M 499.49 773.52
  L 497.52 767.12
  L 498.60 768.79
  L 499.27 770.56
  L 499.51 772.01
  L 499.49 773.52
  Z"
/>
<path fill="#838383" d="
  M 188.36 768.37
  L 188.79 770.25
  L 188.88 772.11
  L 188.53 774.40
  L 188.20 772.86
  L 188.20 772.86
  L 188.09 770.64
  L 188.36 768.37
  Z"
/>
<path fill="#838383" d="
  M 671.98 771.49
  L 670.88 772.60
  L 669.86 772.90
  L 669.86 772.90
  L 669.17 772.60
  L 671.98 771.49
  Z"
/>
<path fill="#838383" d="
  M 891.45 782.45
  L 891.89 779.83
  L 892.11 777.11
  L 892.11 774.27
  L 891.90 771.32
  L 892.62 774.76
  L 892.61 778.12
  L 892.61 778.12
  L 892.19 780.31
  L 891.45 782.45
  Z"
/>
<path fill="#838383" d="
  M 507.52 772.56
  L 507.83 775.70
  L 507.58 777.89
  L 507.20 776.62
  L 507.05 775.34
  L 507.15 773.95
  L 507.52 772.56
  Z"
/>
<ellipse fill="#838383" cx="0.00" cy="0.00" transform="translate(145.46,775.38) rotate(92.3)" rx="1.88" ry="0.20"/>
<path fill="#838383" d="
  M 900.48 773.86
  L 900.75 776.02
  L 900.49 778.02
  L 900.15 776.22
  L 900.15 776.22
  L 900.21 775.05
  L 900.48 773.86
  Z"
/>
<path fill="#838383" d="
  M 717.04 776.94
  L 709.74 784.06
  L 717.04 776.94
  Z"
/>
<path fill="#838383" d="
  M 145.35 777.98
  L 145.41 777.52
  L 145.53 777.74
  L 145.53 777.99
  L 145.46 778.05
  L 145.44 778.06
  L 145.35 777.98
  Z"
/>
<path fill="#838383" d="
  M 145.92 779.50
  L 146.01 781.88
  L 145.46 781.34
  L 145.24 780.77
  L 145.39 780.15
  L 145.92 779.50
  Z"
/>
<path fill="#838383" d="
  M 721.36 783.10
  L 717.34 787.20
  L 717.00 788.00
  L 717.30 788.83
  L 722.28 794.36
  L 716.74 788.93
  L 716.37 788.03
  L 716.76 787.14
  L 716.76 787.14
  L 716.79 787.11
  L 721.36 783.10
  Z"
/>
<path fill="#838383" d="
  M 601.46 797.01
  L 601.02 793.81
  L 601.02 790.63
  L 601.02 790.63
  L 601.61 786.85
  L 601.46 797.01
  Z"
/>
<path fill="#838383" d="
  M 773.19 793.81
  L 794.00 793.25
  L 814.21 793.45
  L 814.62 793.34
  L 814.84 792.97
  L 815.11 790.73
  L 814.91 788.12
  L 814.68 787.64
  L 814.19 787.49
  L 773.04 787.20
  L 815.53 787.03
  L 815.89 787.15
  L 816.01 787.51
  L 816.01 793.48
  L 815.89 793.85
  L 815.52 793.97
  L 773.19 793.81
  Z"
/>
<path fill="#838383" d="
  M 397.49 831.69
  L 396.57 831.50
  L 396.23 831.04
  L 396.10 830.31
  L 395.90 822.84
  L 395.89 813.97
  L 396.40 792.03
  L 396.85 810.76
  L 396.61 829.45
  L 396.76 830.51
  L 397.49 831.69
  Z"
/>
<path fill="#838383" d="
  M 710.84 793.31
  L 709.49 795.04
  L 709.49 795.04
  L 708.22 796.30
  L 706.78 797.41
  L 707.79 795.98
  L 708.97 794.72
  L 708.97 794.72
  L 710.84 793.31
  Z"
/>
<path fill="#838383" d="
  M 713.60 796.02
  L 713.29 795.78
  L 713.29 795.78
  L 712.58 795.04
  L 712.00 794.15
  L 712.78 794.50
  L 713.30 795.02
  L 713.30 795.02
  L 713.60 796.02
  Z"
/>
<path fill="#838383" d="
  M 123.52 807.58
  L 123.20 805.34
  L 123.15 803.11
  L 123.15 803.11
  L 123.34 801.08
  L 123.77 799.06
  L 123.52 807.58
  Z"
/>
<path fill="#838383" d="
  M 479.72 799.84
  L 452.51 799.98
  L 452.58 799.70
  L 452.80 799.46
  L 453.10 799.38
  L 466.49 799.26
  L 479.72 799.84
  Z"
/>
<path fill="#838383" d="
  M 871.81 799.85
  L 845.54 799.99
  L 845.62 799.74
  L 845.68 799.62
  L 845.80 799.57
  L 859.11 799.36
  L 871.81 799.85
  Z"
/>
<path fill="#838383" d="
  M 160.69 799.89
  L 146.98 799.86
  L 160.69 799.89
  Z"
/>
<path fill="#838383" d="
  M 146.71 799.94
  L 146.65 799.97
  L 146.24 800.34
  L 146.14 800.50
  L 146.05 800.90
  L 145.95 806.03
  L 146.12 811.21
  L 146.25 811.60
  L 146.60 811.84
  L 148.98 812.64
  L 146.44 812.86
  L 145.65 812.59
  L 145.29 811.84
  L 145.29 811.79
  L 145.44 800.51
  L 145.60 800.08
  L 146.01 799.80
  L 146.71 799.94
  Z"
/>
<path fill="#838383" d="
  M 845.46 800.88
  L 845.74 801.05
  L 845.89 801.50
  L 845.86 806.49
  L 845.44 811.49
  L 845.24 800.98
  L 845.26 800.91
  L 845.36 800.88
  L 845.46 800.88
  Z"
/>
<path fill="#838383" d="
  M 699.36 804.73
  L 696.28 808.68
  L 696.29 808.61
  L 696.29 808.61
  L 696.66 807.55
  L 697.29 806.56
  L 698.19 805.61
  L 699.36 804.73
  Z"
/>
<path fill="#838383" d="
  M 773.58 808.10
  L 773.99 812.50
  L 774.06 818.61
  L 773.61 824.96
  L 773.21 820.87
  L 773.07 816.70
  L 773.19 812.44
  L 773.58 808.10
  Z"
/>
<path fill="#838383" d="
  M 578.18 810.06
  L 543.49 809.39
  L 560.19 809.20
  L 576.87 809.40
  L 577.59 809.55
  L 578.30 809.99
  L 578.18 810.06
  Z"
/>
<path fill="#838383" d="
  M 696.39 809.30
  L 696.54 809.85
  L 696.67 810.76
  L 697.01 821.27
  L 696.74 830.67
  L 696.61 831.11
  L 696.26 831.43
  L 695.05 831.82
  L 693.26 831.95
  L 692.27 832.00
  L 690.95 832.03
  L 689.70 831.80
  L 689.10 831.59
  L 695.30 831.34
  L 696.12 831.04
  L 696.39 830.21
  L 696.39 809.30
  Z"
/>
<path fill="#838383" d="
  M 165.72 811.89
  L 164.42 812.63
  L 164.42 812.63
  L 163.36 812.75
  L 162.20 812.53
  L 165.72 811.89
  Z"
/>
<path fill="#838383" d="
  M 168.75 831.40
  L 157.72 831.87
  L 146.65 832.08
  L 135.54 832.04
  L 124.39 831.75
  L 123.84 831.65
  L 123.47 831.40
  L 123.21 830.46
  L 123.58 824.03
  L 123.61 830.54
  L 123.81 831.02
  L 124.29 831.22
  L 168.75 831.40
  Z"
/>
<path fill="#838383" d="
  M 845.37 824.19
  L 845.70 824.96
  L 845.40 825.97
  L 845.31 824.71
  L 845.37 824.19
  Z"
/>
<path fill="#838383" d="
  M 821.54 831.13
  L 821.64 825.08
  L 821.98 826.49
  L 822.10 827.91
  L 821.96 829.52
  L 821.54 831.13
  Z"
/>
<path fill="#838383" d="
  M 741.53 827.70
  L 741.22 827.51
  L 740.97 827.16
  L 741.24 826.97
  L 741.53 827.70
  Z"
/>
<path fill="#838383" d="
  M 745.77 831.79
  L 749.57 831.37
  L 752.79 831.36
  L 753.83 831.33
  L 754.29 831.05
  L 754.29 831.05
  L 754.29 831.05
  L 754.17 830.53
  L 753.47 829.75
  L 751.83 827.48
  L 755.01 830.76
  L 755.12 830.92
  L 755.13 831.50
  L 754.66 831.85
  L 750.40 832.18
  L 745.77 831.79
  Z"
/>
<path fill="#838383" d="
  M 845.65 828.21
  L 846.07 829.67
  L 845.85 830.72
  L 845.30 831.30
  L 844.38 831.71
  L 842.13 832.10
  L 842.13 832.10
  L 840.08 832.08
  L 838.01 831.71
  L 844.06 831.29
  L 844.08 831.29
  L 844.59 831.14
  L 845.00 830.80
  L 845.24 830.34
  L 845.29 829.81
  L 845.41 828.70
  L 845.65 828.21
  Z"
/>
<path fill="#838383" d="
  M 176.79 829.66
  L 170.69 831.00
  L 176.79 829.66
  Z"
/>
<path fill="#838383" d="
  M 657.74 829.67
  L 652.64 831.60
  L 647.43 832.74
  L 644.77 833.02
  L 642.08 833.09
  L 636.62 832.64
  L 641.23 832.69
  L 645.80 832.36
  L 651.81 831.35
  L 657.74 829.67
  Z"
/>
<path fill="#838383" d="
  M 516.51 830.32
  L 516.81 830.79
  L 516.81 830.79
  L 517.30 831.06
  L 518.00 831.11
  L 520.20 831.22
  L 523.27 831.75
  L 519.39 832.10
  L 517.82 832.00
  L 516.51 831.73
  L 516.19 831.51
  L 516.06 831.16
  L 516.11 830.81
  L 516.51 830.32
  Z"
/>
<path fill="#838383" d="
  M 292.31 830.47
  L 292.49 830.89
  L 292.37 831.39
  L 291.97 831.77
  L 291.97 831.77
  L 291.45 831.82
  L 290.79 831.56
  L 291.53 831.21
  L 292.12 830.71
  L 292.12 830.71
  L 292.31 830.47
  Z"
/>
<path fill="#838383" d="
  M 816.79 831.46
  L 790.77 832.06
  L 767.00 831.90
  L 766.07 831.65
  L 765.64 831.27
  L 816.79 831.46
  Z"
/>
<path fill="#838383" d="
  M 508.82 831.35
  L 508.50 831.47
  L 508.50 831.47
  L 508.50 831.47
  L 506.55 831.98
  L 504.47 832.17
  L 502.29 832.03
  L 499.98 831.56
  L 508.82 831.35
  Z"
/>
<path fill="#838383" d="
  M 351.97 831.73
  L 325.04 831.97
  L 301.10 831.84
  L 300.94 831.79
  L 300.84 831.56
  L 351.65 831.29
  L 351.83 831.34
  L 351.95 831.48
  L 351.96 831.50
  L 351.97 831.73
  Z"
/>
<path fill="#838383" d="
  M 400.57 831.63
  L 399.89 831.79
  L 399.04 831.35
  L 399.74 831.23
  L 400.28 831.38
  L 400.57 831.63
  Z"
/>
<path fill="#838383" d="
  M 593.22 831.51
  L 591.34 831.91
  L 591.34 831.91
  L 589.75 831.92
  L 588.13 831.64
  L 590.28 831.30
  L 593.22 831.51
  Z"
/>
</svg>
